<svg width="37" height="34" viewBox="0 0 37 34" fill="none" xmlns="http://www.w3.org/2000/svg">
<mask id="path-1-inside-1_96238_48" fill="white">
<path d="M33.7224 27.6191L14.8968 33.6053L18.1746 18.1725L37.0001 12.1863L33.7224 27.6191Z"/>
</mask>
<path d="M33.7224 27.6191L14.8968 33.6053L18.1746 18.1725L37.0001 12.1863L33.7224 27.6191Z" fill="#202D06"/>
<path d="M17.9668 19.1506L36.7924 13.1645L37.2079 11.2081L18.3823 17.1943L17.9668 19.1506Z" fill="#4B6014" mask="url(#path-1-inside-1_96238_48)"/>
<rect width="19.1241" height="19.9222" transform="matrix(-0.779194 -0.640447 0.944695 -0.300395 18.1599 18.2324)" fill="#7B9F11"/>
<mask id="path-4-inside-2_96238_48" fill="white">
<path d="M14.8972 33.603L-8.71156e-05 21.3584L3.27853 5.9213L18.1758 18.1659L14.8972 33.603Z"/>
</mask>
<path d="M14.8972 33.603L-8.71156e-05 21.3584L3.27853 5.9213L18.1758 18.1659L14.8972 33.603Z" fill="#D2EE68"/>
<path d="M3.07078 6.89948L17.9681 19.1441L18.3836 17.1877L3.48628 4.94312L3.07078 6.89948Z" fill="#E6F79F" mask="url(#path-4-inside-2_96238_48)"/>
</svg>
